<?xml version="1.0" standalone="no"?>
<!DOCTYPE svg PUBLIC "-//W3C//DTD SVG 20010904//EN"
 "http://www.w3.org/TR/2001/REC-SVG-20010904/DTD/svg10.dtd">
<svg version="1.0" xmlns="http://www.w3.org/2000/svg"
 width="726.000000pt" height="213.000000pt" viewBox="0 0 726.000000 213.000000"
 preserveAspectRatio="xMidYMid meet">

<g transform="translate(0.000000,213.000000) scale(0.100000,-0.100000)"
fill="#000000" stroke="none">
<path d="M6148 1147 c-109 -227 -200 -419 -203 -428 -4 -11 0 -18 12 -22 10
-2 26 -8 35 -12 15 -6 23 5 47 56 16 35 108 227 204 427 l176 362 -29 15 c-16
8 -33 15 -37 15 -4 -1 -97 -186 -205 -413z"/>
<path d="M810 1115 l0 -335 45 0 45 0 0 125 0 125 78 0 c131 0 200 32 240 110
19 37 23 57 20 117 -4 80 -20 111 -78 150 -50 35 -94 43 -227 43 l-123 0 0
-335z m270 247 c49 -24 73 -74 66 -136 -10 -93 -56 -126 -176 -126 l-70 0 0
140 0 140 73 0 c48 0 83 -6 107 -18z"/>
<path d="M3140 1115 l0 -335 45 0 45 0 0 145 0 145 130 0 130 0 0 35 0 35
-130 0 -130 0 0 120 0 119 148 3 147 3 3 33 3 32 -195 0 -196 0 0 -335z"/>
<path d="M2083 1413 l-33 -4 0 -60 0 -59 -60 0 -60 0 0 -35 0 -35 60 0 60 0 0
-174 c0 -163 1 -175 23 -207 12 -19 38 -42 57 -51 44 -23 136 -23 190 -2 l39
16 -15 30 c-11 22 -20 28 -32 22 -9 -4 -42 -9 -72 -11 -45 -4 -60 -1 -80 15
-25 20 -25 23 -28 191 l-3 171 85 0 c62 0 86 3 86 13 0 6 3 22 6 35 6 22 5 22
-85 22 l-91 0 0 65 c0 36 -3 64 -7 63 -5 0 -23 -3 -40 -5z"/>
<path d="M4963 1413 l-33 -4 0 -60 0 -59 -60 0 -60 0 0 -35 0 -35 60 0 60 0 0
-174 c0 -163 1 -175 23 -207 12 -19 38 -42 57 -51 44 -23 136 -23 190 -2 l39
16 -15 30 c-11 22 -20 28 -32 22 -9 -4 -42 -9 -72 -11 -45 -4 -60 -1 -80 15
-25 20 -25 23 -28 191 l-3 171 85 0 c62 0 86 3 86 13 0 6 3 22 6 35 6 22 5 22
-85 22 l-91 0 0 65 c0 36 -3 64 -7 63 -5 0 -23 -3 -40 -5z"/>
<path d="M387 1237 l-178 -112 3 -44 3 -43 180 -114 180 -114 23 26 c12 14 22
28 22 32 0 4 -75 54 -166 111 -91 57 -164 104 -162 106 2 1 75 47 163 100 88
54 162 100 165 102 8 7 -28 58 -42 60 -7 1 -93 -49 -191 -110z"/>
<path d="M6566 1325 c-9 -14 -15 -29 -12 -33 3 -5 77 -53 165 -107 87 -55 158
-102 156 -105 -2 -4 -76 -51 -164 -105 -89 -55 -161 -102 -161 -105 0 -3 10
-17 23 -33 l22 -27 180 113 180 114 3 44 3 44 -181 113 c-99 61 -184 112 -189
112 -5 0 -16 -11 -25 -25z"/>
<path d="M1428 1284 c-46 -14 -46 -14 -35 -45 11 -28 14 -30 47 -22 19 4 65 8
102 8 82 0 105 -17 114 -86 l6 -47 -94 -4 c-108 -4 -159 -25 -196 -79 -20 -29
-23 -44 -20 -96 4 -67 25 -100 80 -129 58 -30 171 -12 212 34 l18 21 33 -34
c41 -45 71 -46 80 -4 5 21 3 34 -8 42 -12 10 -16 45 -19 177 -4 193 -13 220
-88 258 -53 26 -157 29 -232 6z m232 -317 c0 -53 -4 -67 -22 -85 -29 -27 -70
-42 -114 -42 -103 0 -117 153 -17 176 16 3 33 7 38 9 6 2 34 4 63 4 l52 1 0
-63z"/>
<path d="M3735 1286 c-43 -13 -53 -31 -33 -59 12 -16 19 -17 67 -6 118 25 191
-9 191 -90 l0 -39 -93 -4 c-112 -5 -173 -33 -202 -94 -22 -46 -16 -124 12
-162 50 -68 171 -82 251 -29 l41 27 30 -30 c38 -38 66 -39 79 -1 8 23 7 31 -9
45 -17 14 -19 31 -19 164 0 194 -18 244 -97 278 -39 17 -163 17 -218 0z m225
-319 c0 -53 -4 -67 -22 -84 -36 -32 -63 -43 -108 -43 -114 0 -122 153 -10 180
19 4 59 8 88 9 l52 1 0 -63z"/>
<path d="M4382 1279 c-85 -42 -132 -131 -132 -250 0 -166 99 -267 252 -257 58
3 159 40 158 56 -1 4 -9 17 -20 30 -18 22 -20 23 -51 6 -18 -9 -57 -18 -88
-21 -66 -5 -109 16 -138 69 -26 48 -25 189 1 242 38 76 122 97 209 52 33 -16
49 -20 54 -12 4 6 13 21 20 32 13 21 11 23 -39 48 -68 34 -163 36 -226 5z"/>
<path d="M5490 1277 c-45 -24 -80 -74 -80 -115 0 -70 51 -114 175 -151 97 -28
115 -43 115 -92 0 -34 -5 -42 -32 -59 -47 -28 -119 -26 -188 6 l-54 25 -18
-23 c-23 -31 -20 -38 33 -68 38 -22 56 -25 139 -25 151 0 215 45 215 150 0 82
-39 116 -183 161 -41 12 -82 30 -93 40 -19 17 -25 50 -11 70 27 40 122 45 198
10 l51 -24 17 29 c9 16 15 33 11 38 -3 6 -30 19 -61 30 -77 29 -177 28 -234
-2z"/>
<path d="M2530 1085 l0 -35 195 0 195 0 0 35 0 35 -195 0 -195 0 0 -35z"/>
</g>
</svg>
