<?xml version="1.0" standalone="no"?>
<!DOCTYPE svg PUBLIC "-//W3C//DTD SVG 20010904//EN"
 "http://www.w3.org/TR/2001/REC-SVG-20010904/DTD/svg10.dtd">
<svg version="1.0" xmlns="http://www.w3.org/2000/svg"
 width="312.000000pt" height="253.000000pt" viewBox="0 0 312.000000 253.000000"
 preserveAspectRatio="xMidYMid meet">

<g transform="translate(0.000000,253.000000) scale(0.100000,-0.100000)"
fill="#000000" stroke="none">
<path d="M2457 2440 c-27 -5 -66 -20 -88 -34 -46 -31 -69 -95 -69 -196 0 -118
29 -169 144 -254 104 -77 116 -95 116 -175 0 -72 -10 -91 -47 -91 -31 0 -43
28 -43 104 l0 66 -85 0 -85 0 0 -77 c0 -96 14 -150 48 -185 40 -44 98 -61 190
-57 66 3 85 9 121 32 25 16 49 43 57 62 17 41 19 239 3 282 -14 37 -71 96
-139 143 -86 59 -103 82 -108 145 -5 64 7 85 49 85 33 0 37 -11 41 -105 l3
-60 83 -3 84 -3 -4 110 c-2 91 -6 114 -24 138 -42 58 -149 89 -247 73z"/>
<path d="M302 1993 l3 -438 60 -3 c111 -6 104 -17 107 175 l3 167 40 -159 c22
-88 44 -166 48 -172 6 -8 32 -13 63 -13 l53 0 15 50 c8 28 28 108 43 178 l28
127 5 -175 5 -175 60 -3 c32 -2 69 -1 82 3 l23 5 0 436 0 435 -87 -3 -86 -3
-28 -105 c-16 -58 -47 -178 -71 -267 -23 -90 -45 -163 -48 -163 -3 0 -18 48
-33 108 -44 170 -94 356 -107 396 l-12 36 -84 0 -84 0 2 -437z"/>
<path d="M1062 1993 l3 -438 80 0 80 0 3 438 2 437 -85 0 -85 0 2 -437z"/>
<path d="M1357 2423 c-4 -3 -7 -196 -7 -428 0 -314 3 -424 12 -433 13 -13 341
-18 372 -6 12 5 16 21 16 75 l0 69 -110 0 -110 0 0 365 0 365 -83 0 c-46 0
-87 -3 -90 -7z"/>
<path d="M1825 2418 c-3 -7 -4 -204 -3 -438 l3 -425 195 0 195 0 3 72 3 72
-113 3 -113 3 0 105 0 105 95 5 95 5 3 49 c6 94 5 95 -101 98 l-92 3 -3 102
-3 102 113 3 113 3 3 73 3 72 -196 0 c-147 0 -197 -3 -200 -12z"/>
<path d="M932 1168 l3 -173 138 -3 137 -3 0 -79 0 -80 465 0 c256 0 465 4 465
9 0 4 -9 20 -20 34 -11 14 -20 31 -20 39 0 8 -5 19 -12 26 -6 6 -13 35 -15 63
-2 29 -10 65 -18 82 -8 17 -15 36 -15 44 0 7 -9 30 -20 50 -11 21 -20 45 -20
54 0 10 -27 30 -72 52 -65 32 -78 35 -120 28 -36 -6 -53 -4 -80 10 -30 17 -68
18 -416 19 l-382 0 2 -172z"/>
<path d="M252 1104 c-5 -9 -7 -25 -5 -35 5 -18 21 -19 294 -19 191 0 290 4
294 11 4 5 4 21 1 35 l-6 24 -285 0 c-253 0 -285 -2 -293 -16z"/>
<path d="M2197 1113 c-4 -3 -7 -19 -7 -35 l0 -28 293 2 292 3 0 30 0 30 -286
3 c-157 1 -288 -1 -292 -5z"/>
<path d="M203 662 c-11 -7 -9 -23 55 -392 l18 -105 52 -3 c29 -2 52 0 52 3 0
27 44 282 49 288 4 4 18 -60 31 -143 l23 -151 51 3 51 3 22 125 c64 357 65
380 28 380 -5 0 -15 -4 -21 -8 -10 -7 -40 -151 -68 -327 l-12 -80 -13 75 c-34
205 -53 306 -60 320 -10 20 -45 24 -58 8 -7 -10 -70 -344 -74 -394 0 -5 -16
81 -35 191 -36 209 -47 235 -91 207z"/>
<path d="M729 641 l-29 -29 0 -201 c0 -194 1 -201 23 -227 30 -34 108 -45 155
-20 47 24 54 63 50 274 l-3 184 -28 24 c-22 19 -39 24 -83 24 -48 0 -60 -4
-85 -29z m125 -47 c12 -31 7 -359 -6 -372 -15 -15 -51 -15 -66 0 -13 13 -18
369 -5 381 13 14 71 7 77 -9z"/>
<path d="M1024 658 c-39 -18 -44 -50 -44 -254 l0 -196 29 -29 c24 -24 38 -29
76 -29 65 0 102 22 114 68 6 20 11 110 11 200 0 223 -14 253 -117 251 -26 0
-58 -5 -69 -11z m104 -60 c8 -8 12 -65 12 -190 0 -170 -1 -178 -21 -188 -11
-7 -32 -9 -45 -6 l-24 6 0 189 c0 103 3 191 7 194 11 11 58 8 71 -5z"/>
<path d="M1265 648 c-3 -13 -4 -126 -3 -253 l3 -230 81 -3 c75 -3 85 -1 110
22 l29 24 3 189 c2 116 -1 199 -7 216 -14 37 -65 57 -145 57 -60 0 -66 -2 -71
-22z m141 -52 c17 -13 19 -28 19 -186 0 -188 -1 -190 -62 -190 l-33 0 0 195 0
195 28 0 c16 0 37 -6 48 -14z"/>
<path d="M1526 662 c-4 -7 69 -462 79 -489 5 -14 91 -18 98 -5 3 4 15 65 27
137 12 72 25 137 28 145 2 8 15 -49 27 -126 12 -78 25 -146 29 -153 4 -6 27
-11 51 -11 38 0 45 3 50 22 29 136 75 413 75 461 0 22 -4 27 -24 27 -14 0 -28
-4 -31 -10 -3 -5 -19 -92 -36 -192 -29 -172 -34 -197 -42 -187 -2 2 -16 85
-31 184 -15 102 -33 186 -41 194 -8 8 -23 11 -37 8 -22 -6 -26 -15 -37 -89 -6
-46 -21 -135 -33 -198 -25 -134 -25 -134 -59 95 -26 181 -31 195 -63 195 -14
0 -27 -4 -30 -8z"/>
<path d="M2073 658 c-39 -19 -44 -53 -41 -261 3 -186 4 -198 25 -218 29 -29
108 -37 151 -15 43 22 52 62 52 246 0 169 -9 221 -43 245 -25 17 -110 19 -144
3z m111 -64 c12 -31 7 -359 -6 -372 -15 -15 -51 -15 -66 0 -13 13 -18 369 -5
381 13 14 71 7 77 -9z"/>
<path d="M2315 649 c-3 -13 -4 -127 -3 -254 l3 -230 33 -3 32 -3 0 115 c0 153
14 153 66 1 39 -115 39 -115 72 -115 17 0 32 4 32 10 0 5 -18 57 -41 115 l-41
105 31 29 c30 28 31 33 31 109 0 71 -3 84 -24 109 -22 25 -31 28 -105 31 -77
4 -80 3 -86 -19z m139 -55 c11 -10 16 -34 16 -69 0 -44 -4 -57 -22 -69 -12 -9
-33 -16 -45 -16 -22 0 -23 3 -23 85 l0 85 29 0 c16 0 37 -7 45 -16z"/>
<path d="M2603 663 c-10 -3 -13 -64 -13 -254 l0 -250 33 3 32 3 5 98 5 99 50
-101 c47 -97 50 -101 82 -101 18 0 33 2 33 6 0 3 -25 56 -55 119 -30 62 -55
120 -55 129 0 8 25 66 55 127 57 115 59 134 14 127 -19 -2 -34 -24 -76 -108
l-51 -105 -1 101 c-1 83 -4 103 -17 108 -18 7 -23 7 -41 -1z"/>
</g>
</svg>
